# xmcd
#
# Track frame offsets: 
#        150
#        15051
#        24059
#        38388
#        53863
#        68206
#        82704
#        93818
#        105460
#        116855
#        131523
#        146098
#        161010
#        175905
#        186397
#        203840
#        218985
#        232954
#        243568
#        252413
#        269023
#        279341
#        287616
#        302835
#        320386
#        336152
#
# Disc length: 4655 seconds
#
# Revision: 0
# Processed by: cddbd v1.5.2PL0 Copyright (c) Steve Scherf et al.
# Submitted via: ExactAudioCopy v0.95b3
#
DISCID=67122d1a
DTITLE=Billie Holiday  - Volume 15 1945-1946 Complete Edition
DYEAR=1900
DGENRE=
TTITLE0=Fine And Mellow
TTITLE1=All Of Me
TTITLE2=Good Morning Heartache
TTITLE3=No Good Man
TTITLE4=No Good Man
TTITLE5=Big Stuff
TTITLE6=Big Stuff
TTITLE7=Big Stuff
TTITLE8=Big Stuff
TTITLE9=Baby. I Don't Cry Over You
TTITLE10=Baby. I Don't Cry Over You
TTITLE11=I'll Look Around
TTITLE12=I'll Look Around
TTITLE13=I Cried For You
TTITLE14=Fine And Mellow
TTITLE15=He's Funny That Way
TTITLE16=The Man I Love
TTITLE17=Gee Baby. Ain't Good To You
TTITLE18=All Of Me
TTITLE19=Billie's Blues (I Love My Man)
TTITLE20=Do You Know What It Means To Miss New Orleans
TTITLE21=Do You Know What It Means To Miss New Orleans
TTITLE22=Farewell To Storyville
TTITLE23=The Blues Are Brewin'
TTITLE24=Trav'lin' Light
TTITLE25=He's Funny That Way
EXTD=
EXTT0=
EXTT1=
EXTT2=
EXTT3=
EXTT4=
EXTT5=
EXTT6=
EXTT7=
EXTT8=
EXTT9=
EXTT10=
EXTT11=
EXTT12=
EXTT13=
EXTT14=
EXTT15=
EXTT16=
EXTT17=
EXTT18=
EXTT19=
EXTT20=
EXTT21=
EXTT22=
EXTT23=
EXTT24=
EXTT25=
PLAYORDER=
